<svg width="466" height="111" viewBox="0 0 466 111" fill="none" xmlns="http://www.w3.org/2000/svg">
<g clip-path="url(#clip0_22_30760)">
<path d="M67.9714 94.4134C67.9714 94.4134 68.2575 78.7826 63.0992 73.018C59.5373 69.0364 54.6743 66.1264 46.0002 66.1264H18.6123V110.663H0V2.49438H50.8448C62.5455 2.49438 71.3488 5.07183 77.2545 10.2174C83.1602 15.3723 86.1039 22.5411 86.1039 31.733C86.1039 42.1351 83.6032 49.1283 78.611 52.7127C73.6188 56.2971 70.2599 58.3941 68.5435 59.0038V59.3087C71.7732 59.7151 75.1967 61.4796 78.8324 64.6114C82.4682 67.7431 84.0553 71.8078 85.1719 76.1035C86.2884 80.3993 86.0854 110.672 86.0854 110.672H68.2575M18.6031 17.9405V51.7242H49.1745C55.1264 51.7242 59.6388 50.2646 62.7208 47.3269C65.7937 44.3984 67.3347 40.1027 67.3347 34.449C67.3347 27.5851 65.4707 23.1138 61.7335 21.0445C57.9962 18.9752 53.7146 17.9405 48.87 17.9405H18.6031Z" fill="#FF4B4B"/>
<path d="M287.601 97.8776V108.631H271.407V0.461914H288.506V40.4536" fill="#FF4B4B"/>
<path d="M345.539 84.8885C346.731 84.8885 347.698 77.9854 347.698 69.4701C347.698 60.9548 346.731 54.0518 345.539 54.0518C344.346 54.0518 343.379 60.9548 343.379 69.4701C343.379 77.9854 344.346 84.8885 345.539 84.8885Z" fill="#FF4B4B"/>
<path d="M336.23 95.6506C337.856 95.6506 339.174 83.9291 339.174 69.4698C339.174 55.0106 337.856 43.2891 336.23 43.2891C334.604 43.2891 333.287 55.0106 333.287 69.4698C333.287 83.9291 334.604 95.6506 336.23 95.6506Z" fill="#FF4B4B"/>
<path d="M324.031 101.286C326.599 101.286 328.682 87.0418 328.682 69.4703C328.682 51.8988 326.599 37.6543 324.031 37.6543C321.462 37.6543 319.38 51.8988 319.38 69.4703C319.38 87.0418 321.462 101.286 324.031 101.286Z" fill="#FF4B4B"/>
<path d="M311.775 106.478C314.761 106.478 317.182 89.9088 317.182 69.47C317.182 49.0311 314.761 32.4622 311.775 32.4622C308.789 32.4622 306.368 49.0311 306.368 69.47C306.368 89.9088 308.789 106.478 311.775 106.478Z" fill="#FF4B4B"/>
<path d="M297.722 107.817C301.804 107.817 305.114 90.6485 305.114 69.4699C305.114 48.2912 301.804 31.1226 297.722 31.1226C293.64 31.1226 290.331 48.2912 290.331 69.4699C290.331 90.6485 293.64 107.817 297.722 107.817Z" fill="#FF4B4B"/>
<path d="M131.532 27.7234C143.74 27.7234 153.226 32.4163 159.981 41.8115C166.735 51.2066 169.411 61.7565 168 73.4796H111.249C111.249 79.6415 112.938 85.0457 116.315 89.6925C119.693 94.3393 124.915 96.658 131.975 96.658C137.022 96.658 141.055 95.5772 144.081 93.397C147.108 91.226 149.378 87.9742 150.891 83.6231H166.929C165.111 92.2052 160.95 98.8012 154.444 103.393C147.939 107.993 140.446 110.284 131.975 110.284C119.868 110.284 110.557 106.423 104.052 98.6904C97.546 90.9673 94.2886 81.0918 94.2886 69.0731C94.2886 57.9596 97.6382 48.2966 104.356 40.0562C111.065 31.8251 120.117 27.7141 131.522 27.7141L131.532 27.7234ZM131.532 41.3588C125.681 41.3588 120.883 43.3542 117.155 47.3451C113.418 51.3359 111.452 56.2598 111.249 62.1168H151.048C150.744 56.6663 148.852 51.844 145.373 47.6499C141.894 43.4651 137.281 41.3588 131.522 41.3588H131.532Z" fill="#FF4B4B"/>
<path d="M253.809 0V108.169H237.614V97.5635H237.31C235.086 102.007 231.764 105.24 227.325 107.264C222.887 109.287 218.291 110.294 213.558 110.294C201.349 110.294 192.269 106.257 186.317 98.1732C180.366 90.0991 177.385 80.1959 177.385 68.482C177.385 54.3385 180.836 44.0103 187.748 37.4974C194.659 30.9846 202.355 27.7235 210.826 27.7235C215.671 27.7235 220.515 28.6843 225.351 30.5966C230.195 32.5181 233.923 35.6498 236.553 39.9917H236.858V0H253.809ZM215.975 41.3589C208.003 41.3589 202.401 44.3428 199.181 50.3014C195.951 56.26 194.336 62.7728 194.336 69.8492C194.336 76.9256 196.08 82.7733 199.559 88.3347C203.038 93.8868 208.464 96.6674 215.828 96.6674C223.191 96.6674 228.866 93.739 232.244 87.882C235.621 82.0251 237.31 75.7154 237.31 68.9439C237.31 60.2601 235.39 53.4886 231.561 48.6386C227.722 43.7886 222.527 41.3682 215.975 41.3682V41.3589Z" fill="#FF4B4B"/>
<path d="M355.905 18.4852V2.12451H373.004V18.4852H355.905ZM355.905 110.293V31.9636H373.004V110.293H355.905Z" fill="#FF4B4B"/>
<path d="M465.916 68.9343C465.916 80.953 462.511 90.8563 455.701 98.6255C448.891 106.404 439.285 110.293 426.874 110.293C414.462 110.293 405.004 106.404 398.194 98.6255C391.384 90.847 387.979 80.953 387.979 68.9343C387.979 56.9155 391.384 47.04 398.194 39.3169C405.004 31.5847 414.564 27.7231 426.874 27.7231C439.184 27.7231 448.891 31.5847 455.701 39.3169C462.511 47.04 465.916 56.9155 465.916 68.9343ZM404.93 68.9343C404.93 75.7058 406.693 82.0154 410.227 87.8724C413.752 93.7293 419.307 96.6578 426.874 96.6578C434.44 96.6578 440.116 93.7293 443.594 87.8724C447.073 82.0154 448.817 75.7058 448.817 68.9343C448.817 62.1627 447.073 55.8808 443.594 50.0701C440.116 44.2593 434.542 41.3586 426.874 41.3586C419.205 41.3586 413.761 44.2593 410.227 50.0701C406.693 55.8808 404.93 62.172 404.93 68.9343Z" fill="#FF4B4B"/>
</g>
<defs>
<clipPath id="clip0_22_30760">
<rect width="466" height="111" fill="white"/>
</clipPath>
</defs>
</svg>
